<svg xmlns="http://www.w3.org/2000/svg" viewBox="0 0 1817.28 547.15"><defs><style>.cls-1{fill:#5bc5f2;}.cls-2{fill:#009fe3;}.cls-3{fill:#b2b2b2;}.cls-4{fill:#878787;}.cls-5{fill:#36a9e1;}.cls-6{fill:#929497;}</style></defs><g id="Layer_2" data-name="Layer 2"><g id="Logos"><polygon class="cls-1" points="236.92 78.59 175.07 117.37 175.07 133.25 175.07 361.44 129.91 335.36 129.91 211.79 129.91 141.35 68.06 176.08 68.06 371.07 236.92 468.56 236.92 420.56 236.92 420.56 236.92 165.91 282.03 189.72 282.03 447.64 343.88 412.36 343.88 222.38 405.79 255.07 405.79 237.65 405.79 176.08 236.92 78.59"></polygon><polygon class="cls-2" points="236.92 78.59 236.92 78.59 236.92 468.56 236.92 468.56 236.92 420.56 236.92 420.56 236.92 165.91 282.03 189.72 282.03 447.64 343.88 412.36 343.88 222.38 405.79 255.07 405.79 237.65 405.79 176.08 236.92 78.59"></polygon><path class="cls-3" d="M236.92,547.15,0,410.36V136.79L236.92,0,473.85,136.79V410.36ZM36.52,389.28,236.92,505l200.4-115.7V157.87L236.92,42.17,36.52,157.87Z"></path><polygon class="cls-4" points="236.92 0 236.92 42.17 437.32 157.88 437.32 389.28 236.92 504.98 236.92 547.15 473.85 410.36 473.85 136.79 236.92 0"></polygon><path class="cls-5" d="M570.82,312.73V154.11h53.54V308c0,17.74,8.37,32.8,36.81,32.8S698,325.78,698,308V154.11h53.54V312.73c0,50.19-38.82,80.31-90.35,80.31S570.82,362.92,570.82,312.73Z"></path><path class="cls-5" d="M930.54,336.82v51.53H793.34V154.11h53.54V336.82Z"></path><path class="cls-5" d="M1091.16,205.65h-60.24v182.7H977.38V205.65H917.15V154.11h174Z"></path><path class="cls-6" d="M1472.63,205.65h-60.24v182.7h-53.54V205.65h-60.23V154.11h174Z"></path><path class="cls-6" d="M1646.63,336.82v51.53H1499.39V154.11H1645v51.54h-92v38.81h83.66v50.87h-83.66v41.49Z"></path><path class="cls-6" d="M1817.28,336.82v51.53H1680.09V154.11h53.54V336.82Z"></path><polygon class="cls-5" points="1250.1 388.35 1308.66 388.35 1229.02 154.12 1160.76 154.12 1081.12 388.35 1139.68 388.35 1147 365.34 1147 365.34 1147.01 365.32 1151.39 351.54 1151.41 351.54 1171.98 287.14 1171.98 287.14 1194.89 215.35 1214.33 276.28 1214.33 276.28 1238.37 351.54 1238.39 351.54 1243.51 367.64 1243.52 367.65 1243.52 367.65 1250.1 388.35"></polygon></g></g></svg>